<svg fill="none" height="130" viewBox="0 0 130 130" width="130" xmlns="http://www.w3.org/2000/svg" xmlns:xlink="http://www.w3.org/1999/xlink"><linearGradient id="a" gradientUnits="userSpaceOnUse" x1="38.5073" x2="38.5073" y1="70.5667" y2="23.7628"><stop offset="0" stop-color="#58a841"/><stop offset="1" stop-color="#9cc93e"/></linearGradient><linearGradient id="b" gradientUnits="userSpaceOnUse" x1="49.2236" x2="49.2236" y1="70.7493" y2="5.47155"><stop offset="0" stop-color="#15583e"/><stop offset="1" stop-color="#008671"/></linearGradient><linearGradient id="c" gradientUnits="userSpaceOnUse" x1="81.161" x2="81.161" y1="70.6718" y2="12.9022"><stop offset="0" stop-color="#207d32"/><stop offset="1" stop-color="#3eb44a"/></linearGradient><linearGradient id="d" gradientUnits="userSpaceOnUse" x1="91.8134" x2="91.8134" y1="70.8254" y2="18.742"><stop offset="0" stop-color="#025a30"/><stop offset="1" stop-color="#008747"/></linearGradient><linearGradient id="e" gradientUnits="userSpaceOnUse" x1="70.4792" x2="70.4792" y1="62.9055" y2=".238826"><stop offset="0" stop-color="#004520"/><stop offset="1" stop-color="#006e39"/></linearGradient><linearGradient id="f" gradientUnits="userSpaceOnUse" x1="59.8212" x2="59.8212" y1="62.9302" y2="11.4206"><stop offset="0" stop-color="#247b79"/><stop offset="1" stop-color="#00b6a4"/></linearGradient><clipPath id="g"><path d="m0 0h130v130h-130z"/></clipPath><g clip-path="url(#g)"><path d="m42.9038 62.4164-8.7969 8.1388v-46.7897h8.7969z" fill="url(#a)"/><path d="m44.8086 62.5895 8.8315 8.1735v-65.28397h-8.8315z" fill="url(#b)"/><path d="m85.5722 62.5203-8.8315 8.1388v-57.7685h8.8315z" fill="url(#c)"/><path d="m87.4077 62.6934 8.7969 8.1389v-52.0887h-8.7969z" fill="url(#d)"/><path d="m66.0737 54.7624 8.8316 8.1388v-62.65181h-8.8316z" fill="url(#e)"/><path d="m64.2378 54.797-8.8316 8.1389v-51.4999h8.8316z" fill="url(#f)"/><g fill="#66b360"><path d="m4.28746 116.237c-2.32043 0-4.052108-1.801-4.052108-4.087s1.697028-4.121 4.086738-4.121c1.4546 0 2.35507.519 3.11701 1.246l-.90046 1.039c-.6234-.588-1.31608-1.004-2.21655-1.004-1.52387 0-2.63213 1.247-2.63213 2.805 0 1.559 1.10826 2.84 2.63213 2.84.96974 0 1.59314-.381 2.28581-1.039l.90047.901c-.8312.9-1.73167 1.42-3.22091 1.42z"/><path d="m11.526 112.773v3.36h-1.3854v-7.966h1.3854v3.29h3.8096v-3.29h1.3854v7.966h-1.3854v-3.36z"/><path d="m21.3619 108.167v7.966h-1.3853v-7.966z"/><path d="m28.3231 116.237c-2.3204 0-4.0521-1.801-4.0521-4.087s1.697-4.121 4.0867-4.121c1.4546 0 2.3551.519 3.1171 1.246l-.9005 1.039c-.6234-.588-1.3161-1.004-2.2166-1.004-1.5238 0-2.6321 1.247-2.6321 2.805 0 1.559 1.1083 2.84 2.6321 2.84.9698 0 1.5932-.381 2.2858-1.039l.9005.901c-.8312.9-1.7317 1.42-3.2209 1.42z"/><path d="m41.7608 116.098h-1.4893l-.7965-1.905h-3.7404l-.8312 1.905h-1.42l3.498-8h1.2814zm-4.156-6.338-1.3507 3.187h2.736z"/><path d="m47.5447 116.237c-2.4936 0-4.1214-1.767-4.1214-4.087 0-2.251 1.6971-4.121 4.0868-4.121 1.3853 0 2.2511.381 3.0477 1.073l-.9004 1.074c-.6234-.52-1.2122-.866-2.2166-.866-1.4546 0-2.5629 1.281-2.5629 2.805 0 1.663 1.0737 2.84 2.7014 2.84.762 0 1.42-.242 1.9049-.589v-1.489h-2.0434v-1.212h3.3941v3.325c-.762.693-1.8702 1.247-3.2902 1.247z"/><path d="m57.6228 116.237c-2.459 0-4.156-1.836-4.156-4.087s1.7317-4.121 4.156-4.121c2.459 0 4.156 1.835 4.156 4.086s-1.7317 4.122-4.156 4.122zm0-6.927c-1.5931 0-2.6668 1.247-2.6668 2.805 0 1.559 1.1083 2.84 2.7014 2.84 1.5932 0 2.6668-1.247 2.6668-2.805 0-1.559-1.1083-2.84-2.7014-2.84z"/><path d="m70.5758 112.773v3.36h-1.3854v-7.966h1.3854v3.29h3.8096v-3.29h1.3854v7.966h-1.3854v-3.36z"/><path d="m82.7322 116.237c-2.459 0-4.156-1.836-4.156-4.087s1.7316-4.121 4.156-4.121c2.4243 0 4.156 1.835 4.156 4.086s-1.697 4.122-4.156 4.122zm0-6.927c-1.5932 0-2.6668 1.247-2.6668 2.805 0 1.559 1.1083 2.84 2.7014 2.84s2.6668-1.247 2.6668-2.805c0-1.559-1.1083-2.84-2.7014-2.84z"/><path d="m96.4121 112.669c0 2.356-1.3507 3.568-3.4287 3.568s-3.394-1.178-3.394-3.498v-4.572h1.3853v4.502c0 1.49.7619 2.286 2.0087 2.286s2.0088-.762 2.0088-2.216v-4.572h1.3853v4.502z"/><path d="m102.542 111.492c1.663.415 2.563 1.004 2.563 2.355 0 1.489-1.177 2.39-2.84 2.39-1.212 0-2.3548-.416-3.3246-1.282l.8312-1.004c.7624.658 1.5234 1.039 2.4934 1.039.866 0 1.42-.381 1.42-1.005 0-.588-.311-.9-1.801-1.212-1.697-.415-2.6319-.9-2.6319-2.389 0-1.386 1.1429-2.321 2.7019-2.321 1.142 0 2.078.347 2.874 1.005l-.762 1.039c-.727-.52-1.42-.832-2.147-.832-.831 0-1.282.416-1.282.97 0 .623.381.901 1.905 1.247z"/><path d="m109.365 108.167v7.966h-1.385v-7.966z"/><path d="m118.162 108.167h1.385v7.966h-1.177l-4.364-5.68v5.645h-1.385v-7.966h1.281l4.26 5.507z"/><path d="m126.509 116.237c-2.494 0-4.122-1.767-4.122-4.087 0-2.251 1.697-4.121 4.087-4.121 1.385 0 2.251.381 3.048 1.073l-.901 1.074c-.623-.52-1.212-.866-2.216-.866-1.455 0-2.563 1.281-2.563 2.805 0 1.663 1.073 2.84 2.701 2.84.762 0 1.42-.242 1.905-.589v-1.489h-2.043v-1.212h3.394v3.325c-.762.693-1.87 1.247-3.29 1.247z"/><path d="m34.2452 129.848h-1.4546l-.7966-1.905h-3.7751l-.8312 1.905h-1.4199l3.498-8.001h1.2814zm-4.156-6.338-1.3508 3.186h2.7361z"/><path d="m43.146 126.384c0 2.39-1.3507 3.568-3.4287 3.568s-3.3941-1.178-3.3941-3.498v-4.572h1.3854v4.502c0 1.49.7619 2.286 2.0087 2.286s2.0087-.762 2.0087-2.216v-4.572h1.3854v4.502z"/><path d="m49.5879 129.848h-1.42v-6.65h-2.5283v-1.316h6.4419v1.281h-2.5283v6.685z"/><path d="m56.0992 126.488v3.36h-1.3853v-7.966h1.3853v3.29h3.8097v-3.29h1.3853v7.966h-1.3853v-3.36z"/><path d="m68.2898 129.986c-2.459 0-4.156-1.835-4.156-4.087 0-2.251 1.7317-4.121 4.156-4.121s4.156 1.836 4.156 4.087-1.7317 4.121-4.156 4.121zm0-6.961c-1.5931 0-2.6668 1.247-2.6668 2.805 0 1.559 1.1083 2.84 2.7014 2.84 1.5932 0 2.6668-1.247 2.6668-2.805 0-1.559-1.1429-2.84-2.7014-2.84z"/><path d="m80.3773 129.848-1.9395-2.771h-1.7317v2.771h-1.3853v-7.966h3.5326c1.8356 0 2.9439.97 2.9439 2.528 0 1.316-.7966 2.113-1.9049 2.425l2.1473 3.013zm-1.6624-6.685h-2.0434v2.667h2.0434c1.0043 0 1.6277-.519 1.6277-1.351 0-.865-.5887-1.316-1.6277-1.316z"/><path d="m86.1261 121.882v7.966h-1.3854v-7.966z"/><path d="m92.7412 129.848h-1.42v-6.65h-2.5282v-1.316h6.4418v1.281h-2.5283v6.685z"/><path d="m101.607 129.848h-1.42v-3.117l-3.1514-4.814h1.6278l2.2166 3.532 2.251-3.532h1.593l-3.151 4.779v3.152z"/><path d="m107.149 123.371h-.312v-1.316h-.485v-.277h1.281v.277h-.484zm1.87-.346-.52-.762v1.143h-.311v-1.593h.311l.485.762.485-.762h.312v1.593h-.277v-1.143z"/></g><path d="m44.6702 95.9761c-4.8833 0-8.4851-3.775-8.4851-8.5198v-.0346c0-4.7102 3.5672-8.5545 8.6583-8.5545 3.117 0 4.9872 1.039 6.5457 2.5629l-2.3204 2.6668c-1.2814-1.1429-2.5975-1.8702-4.2253-1.8702-2.8053 0-4.814 2.3204-4.814 5.1603v.0347c0 2.8399 1.9741 5.195 4.814 5.195 1.9049 0 3.0478-.7619 4.3638-1.9395l2.3205 2.3551c-1.7663 1.8009-3.6712 2.9438-6.8575 2.9438z" fill="#104432"/><path d="m69.1563 95.6644v-6.6496h-7.5501v6.6496h-3.6365v-16.5894h3.6365v6.5457h7.5501v-6.5457h3.6365v16.5894z" fill="#104432"/><path d="m92.0835 95.6644-1.5239-3.7058h-6.996l-1.5238 3.7058h-3.7058l7.0998-16.6933h3.3595l7.0998 16.6933zm-5.0219-12.2949-2.2165 5.3682h4.3984z" fill="#104432"/></g></svg>